<svg width="38" height="35" viewBox="0 0 38 35" fill="none" xmlns="http://www.w3.org/2000/svg">
<path opacity="0.999" fill-rule="evenodd" clip-rule="evenodd" d="M9.24143 0C15.6839 0.152091 22.1566 0.184585 28.6595 0.0978709C32.7332 0.211597 35.5741 1.94078 37.1819 5.28503C37.7744 12.6549 37.8462 20.0279 37.3977 27.4039C36.8829 31.4594 34.4017 33.7756 29.9541 34.3527C22.6183 34.7442 15.2826 34.7442 7.94689 34.3527C4.23157 33.982 1.82221 32.1876 0.719048 28.9698C0.295734 26.9672 0.0799773 24.9446 0.0717786 22.9018C-0.0991006 17.017 0.116656 11.1448 0.719048 5.28503C1.51864 3.05866 3.13682 1.52522 5.57357 0.685096C6.82518 0.453338 8.04787 0.224907 9.24143 0ZM8.80992 2.15316C15.458 2.24457 22.1465 2.27726 28.8753 2.25103C31.0456 2.36202 32.8795 3.11249 34.3771 4.50206C34.521 4.76299 34.6647 5.02411 34.8086 5.28503C35.3275 11.9978 35.4714 18.7182 35.2401 25.4464C35.37 27.527 34.7585 29.3865 33.4062 31.0251C31.7336 31.8775 29.9357 32.3342 28.0123 32.3953C23.1394 32.3902 18.3927 32.4227 13.7723 32.4931C11.752 32.4947 9.7381 32.3968 7.73114 32.1995C5.12156 31.948 3.50339 30.6757 2.87661 28.3826C2.19698 20.9473 2.19698 13.5091 2.87661 6.068C3.04318 4.9372 3.65442 4.05636 4.71055 3.42548C6.0245 2.78697 7.3911 2.3628 8.80992 2.15316ZM27.365 10.9615C27.6526 10.9615 27.9404 10.9615 28.228 10.9615C28.1434 14.2341 27.8916 17.4966 27.4729 20.7486C27.2321 22.5612 26.6927 24.2904 25.8547 25.9358C25.675 25.9685 25.495 26.001 25.3153 26.0337C23.7832 25.6486 22.3808 25.0287 21.108 24.1741C20.1322 23.5824 19.341 22.8321 18.7347 21.9231C20.8161 19.6758 22.9377 17.4574 25.0995 15.2679C25.3852 13.8967 24.7738 13.4073 23.2656 13.7998C19.9814 15.5834 16.6011 17.2145 13.1251 18.6933C11.5036 18.755 9.9215 18.5593 8.37841 18.1061C10.1301 17.2793 11.928 16.4963 13.7723 15.7572C18.3244 14.1467 22.8552 12.5482 27.365 10.9615Z" fill="#D2C0FF"/>
</svg>
