<svg width="1423" height="226" viewBox="0 0 1423 226" fill="none" xmlns="http://www.w3.org/2000/svg">
<path d="M588.859 147.895C641.553 132.527 699.914 117.812 757.195 102.978C818.793 87.0255 881.625 71.1166 950.067 56.0602C955.527 54.8591 971.5 51.2537 967.616 52.6354C954.135 57.4317 921.773 62.7449 902.019 66.1832C754.912 91.7883 586.172 113.965 413.025 133.65C292.368 147.367 166.63 160.287 32.7341 169.474C22.7362 170.16 -6.37926 172.534 2.74696 171.535C17.2977 169.943 34.9637 168.736 50.4537 167.535C124.95 161.758 202.693 157.972 282.172 155.048C322.026 153.581 370.046 151.369 411.492 152.32C432.583 152.804 430.603 157.597 429.211 160.321C427.814 163.056 412.442 159.17 410.981 158.594C383.925 147.915 399.657 132.602 410.469 121.617C424.68 107.181 452.09 93.3746 494.127 80.7616C495.937 80.2183 533.319 70.1781 535.018 71.0023C541.066 73.9362 539.867 78.3176 541.833 81.2768C548.352 91.0868 557.383 100.805 569.094 110.464C608.136 142.663 657.008 175.432 729.253 205.844C736.252 208.791 744.056 212.882 760.603 214.755C763.851 215.123 767.409 214.229 768.781 213.907C778.911 211.528 784.266 208.067 788.546 205.299C830.047 178.454 825.268 149.407 829.096 121.83C831.657 103.384 822.79 83.7817 841.704 65.5164C843.101 64.1678 845.908 57.7555 860.787 58.6667C885.824 60.2 904.196 65.7433 922.465 68.8504C952.888 74.0242 986.391 78.6201 1021.29 82.7922C1040.39 85.0764 1065.09 88.3084 1089.44 88.3084C1098.09 88.3084 1105.89 86.3516 1110.57 85.3988C1132.83 80.8665 1152.2 76.0106 1169.35 70.8204C1220.85 55.231 1257.87 38.3376 1306.33 22.4784C1328.08 15.3621 1353.44 6.66729 1389.65 1.44438C1409.54 -1.42416 1407.45 10.4972 1407.71 11.4462C1413.72 33.1087 1424.41 54.6792 1421.51 76.3972C1416.72 112.331 1382.36 148.109 1338.2 183.113C1320.45 197.175 1299.2 211.086 1276.35 224.908C1274.94 225.763 1265.72 220.381 1263.57 219.362" stroke="#5C5C61" stroke-width="2" stroke-linecap="round"/>
</svg>
