<svg width="227" height="285" viewBox="0 0 227 285" fill="none" xmlns="http://www.w3.org/2000/svg">
<path d="M0.636364 3.17614V0.363636H16.5909V3.17614H10.1477V20H7.13068V3.17614H0.636364ZM1.76136 64V44.3636H9.78977C11.9034 44.3636 13.5824 44.8409 14.8267 45.7955C16.071 46.75 16.6932 48.0114 16.6932 49.5795C16.6932 50.7727 16.3395 51.6974 15.6321 52.3537C14.9247 53.0014 14.017 53.4403 12.9091 53.6705C13.6335 53.7727 14.3366 54.0284 15.0185 54.4375C15.7088 54.8466 16.2798 55.4091 16.7315 56.125C17.1832 56.8324 17.4091 57.7017 17.4091 58.733C17.4091 59.7386 17.1534 60.6378 16.642 61.4304C16.1307 62.223 15.3977 62.8494 14.4432 63.3097C13.4886 63.7699 12.3466 64 11.017 64H1.76136ZM4.625 61.2386H11.017C12.0568 61.2386 12.8707 60.9915 13.4588 60.4972C14.0469 60.0028 14.3409 59.3295 14.3409 58.4773C14.3409 57.4631 14.0469 56.6662 13.4588 56.0866C12.8707 55.4986 12.0568 55.2045 11.017 55.2045H4.625V61.2386ZM4.625 52.5966H9.78977C10.5994 52.5966 11.294 52.4858 11.8736 52.2642C12.4531 52.0341 12.8963 51.7102 13.2031 51.2926C13.5185 50.8665 13.6761 50.3636 13.6761 49.7841C13.6761 48.9574 13.331 48.3097 12.6406 47.8409C11.9503 47.3636 11 47.125 9.78977 47.125H4.625V52.5966ZM9.73864 108.409C7.96591 108.409 6.41051 107.987 5.07244 107.143C3.7429 106.3 2.70312 105.119 1.95312 103.602C1.21165 102.085 0.840909 100.312 0.840909 98.2841C0.840909 96.2386 1.21165 94.4531 1.95312 92.9276C2.70312 91.402 3.7429 90.2173 5.07244 89.3736C6.41051 88.5298 7.96591 88.108 9.73864 88.108C11.5114 88.108 13.0625 88.5298 14.392 89.3736C15.7301 90.2173 16.7699 91.402 17.5114 92.9276C18.2614 94.4531 18.6364 96.2386 18.6364 98.2841C18.6364 100.312 18.2614 102.085 17.5114 103.602C16.7699 105.119 15.7301 106.3 14.392 107.143C13.0625 107.987 11.5114 108.409 9.73864 108.409ZM9.73864 105.699C11.0852 105.699 12.1932 105.354 13.0625 104.663C13.9318 103.973 14.5753 103.065 14.9929 101.94C15.4105 100.815 15.6193 99.5966 15.6193 98.2841C15.6193 96.9716 15.4105 95.7486 14.9929 94.6151C14.5753 93.4815 13.9318 92.5653 13.0625 91.8665C12.1932 91.1676 11.0852 90.8182 9.73864 90.8182C8.39205 90.8182 7.28409 91.1676 6.41477 91.8665C5.54545 92.5653 4.90199 93.4815 4.48438 94.6151C4.06676 95.7486 3.85795 96.9716 3.85795 98.2841C3.85795 99.5966 4.06676 100.815 4.48438 101.94C4.90199 103.065 5.54545 103.973 6.41477 104.663C7.28409 105.354 8.39205 105.699 9.73864 105.699ZM13.5739 152V135.125H8.35795C7.18182 135.125 6.2571 135.398 5.58381 135.943C4.91051 136.489 4.57386 137.239 4.57386 138.193C4.57386 139.131 4.87642 139.868 5.48153 140.405C6.09517 140.942 6.93466 141.21 8 141.21H14.3409V144.023H8C6.67045 144.023 5.52415 143.788 4.56108 143.32C3.59801 142.851 2.85653 142.182 2.33665 141.312C1.81676 140.435 1.55682 139.395 1.55682 138.193C1.55682 136.983 1.82955 135.943 2.375 135.074C2.92045 134.205 3.70028 133.536 4.71449 133.067C5.73722 132.598 6.9517 132.364 8.35795 132.364H16.4375V152H13.5739ZM0.482955 152L6.05682 142.233H9.32955L3.75568 152H0.482955ZM9.73864 240.409C7.96591 240.409 6.41051 239.987 5.07244 239.143C3.7429 238.3 2.70312 237.119 1.95312 235.602C1.21165 234.085 0.840909 232.312 0.840909 230.284C0.840909 228.239 1.21165 226.453 1.95312 224.928C2.70312 223.402 3.7429 222.217 5.07244 221.374C6.41051 220.53 7.96591 220.108 9.73864 220.108C11.5114 220.108 13.0625 220.53 14.392 221.374C15.7301 222.217 16.7699 223.402 17.5114 224.928C18.2614 226.453 18.6364 228.239 18.6364 230.284C18.6364 232.312 18.2614 234.085 17.5114 235.602C16.7699 237.119 15.7301 238.3 14.392 239.143C13.0625 239.987 11.5114 240.409 9.73864 240.409ZM9.73864 237.699C11.0852 237.699 12.1932 237.354 13.0625 236.663C13.9318 235.973 14.5753 235.065 14.9929 233.94C15.4105 232.815 15.6193 231.597 15.6193 230.284C15.6193 228.972 15.4105 227.749 14.9929 226.615C14.5753 225.482 13.9318 224.565 13.0625 223.866C12.1932 223.168 11.0852 222.818 9.73864 222.818C8.39205 222.818 7.28409 223.168 6.41477 223.866C5.54545 224.565 4.90199 225.482 4.48438 226.615C4.06676 227.749 3.85795 228.972 3.85795 230.284C3.85795 231.597 4.06676 232.815 4.48438 233.94C4.90199 235.065 5.54545 235.973 6.41477 236.663C7.28409 237.354 8.39205 237.699 9.73864 237.699ZM21.1452 245.625V237.188H22.7816C23.1822 236.77 23.5273 236.318 23.8171 235.832C24.1069 235.347 24.3583 234.771 24.5714 234.107C24.793 233.433 24.9805 232.615 25.1339 231.652C25.2873 230.68 25.4237 229.509 25.543 228.136L26.2077 220.364H38.685V237.188H41.7021V245.625H38.685V240H24.1623V245.625H21.1452ZM26.2077 237.188H35.668V223.176H29.0202L28.5089 228.136C28.2958 230.19 28.0316 231.984 27.7163 233.518C27.4009 235.053 26.8981 236.276 26.2077 237.188ZM53.9396 240.409C52.0476 240.409 50.4155 239.991 49.0433 239.156C47.6797 238.312 46.6271 237.136 45.8857 235.628C45.1527 234.111 44.7862 232.347 44.7862 230.335C44.7862 228.324 45.1527 226.551 45.8857 225.017C46.6271 223.474 47.6584 222.273 48.9794 221.412C50.3089 220.543 51.8601 220.108 53.6328 220.108C54.6555 220.108 55.6655 220.278 56.6626 220.619C57.6598 220.96 58.5675 221.514 59.3857 222.281C60.2038 223.04 60.8558 224.045 61.3416 225.298C61.8274 226.551 62.0703 228.094 62.0703 229.926V231.205H46.9339V228.597H59.0021C59.0021 227.489 58.7805 226.5 58.3374 225.631C57.9027 224.761 57.2805 224.075 56.4709 223.572C55.6697 223.07 54.7237 222.818 53.6328 222.818C52.4311 222.818 51.3913 223.116 50.5135 223.713C49.6442 224.301 48.9751 225.068 48.5064 226.014C48.0376 226.96 47.8033 227.974 47.8033 229.057V230.795C47.8033 232.278 48.0589 233.536 48.5703 234.567C49.0902 235.589 49.8104 236.369 50.7308 236.906C51.6513 237.435 52.7209 237.699 53.9396 237.699C54.7322 237.699 55.4482 237.588 56.0874 237.366C56.7351 237.136 57.2933 236.795 57.7621 236.344C58.2308 235.884 58.593 235.312 58.8487 234.631L61.7635 235.449C61.4567 236.438 60.9411 237.307 60.2166 238.057C59.4922 238.798 58.5973 239.378 57.532 239.795C56.4666 240.205 55.2692 240.409 53.9396 240.409ZM64.9052 240L72.8825 230.028L65.0075 220.364H68.587L75.1325 228.75H76.7688V220.364H79.7859V228.75H81.3711L87.9165 220.364H91.4961L83.6722 230.028L91.5984 240H87.9677L81.32 231.562H79.7859V240H76.7688V231.562H75.2347L68.5359 240H64.9052ZM93.8132 245.625V237.188H95.4496C95.8501 236.77 96.1953 236.318 96.4851 235.832C96.7749 235.347 97.0263 234.771 97.2393 234.107C97.4609 233.433 97.6484 232.615 97.8018 231.652C97.9553 230.68 98.0916 229.509 98.2109 228.136L98.8757 220.364H111.353V237.188H114.37V245.625H111.353V240H96.8303V245.625H93.8132ZM98.8757 237.188H108.336V223.176H101.688L101.177 228.136C100.964 230.19 100.7 231.984 100.384 233.518C100.069 235.053 99.5661 236.276 98.8757 237.188ZM124.153 240.46C122.909 240.46 121.779 240.226 120.765 239.757C119.751 239.28 118.946 238.594 118.349 237.699C117.752 236.795 117.454 235.705 117.454 234.426C117.454 233.301 117.676 232.389 118.119 231.69C118.562 230.983 119.154 230.429 119.896 230.028C120.637 229.628 121.456 229.33 122.35 229.134C123.254 228.929 124.162 228.767 125.074 228.648C126.267 228.494 127.234 228.379 127.975 228.303C128.725 228.217 129.271 228.077 129.612 227.881C129.961 227.685 130.136 227.344 130.136 226.858V226.756C130.136 225.494 129.791 224.514 129.1 223.815C128.419 223.116 127.383 222.767 125.994 222.767C124.554 222.767 123.424 223.082 122.606 223.713C121.788 224.344 121.213 225.017 120.88 225.733L118.017 224.71C118.528 223.517 119.21 222.588 120.062 221.923C120.923 221.25 121.86 220.781 122.875 220.517C123.897 220.244 124.903 220.108 125.892 220.108C126.522 220.108 127.247 220.185 128.065 220.338C128.892 220.483 129.689 220.786 130.456 221.246C131.231 221.706 131.875 222.401 132.386 223.33C132.897 224.259 133.153 225.503 133.153 227.062V240H130.136V237.341H129.983C129.778 237.767 129.437 238.223 128.96 238.709C128.483 239.195 127.848 239.608 127.055 239.949C126.262 240.29 125.295 240.46 124.153 240.46ZM124.613 237.75C125.806 237.75 126.812 237.516 127.63 237.047C128.457 236.578 129.079 235.973 129.497 235.232C129.923 234.49 130.136 233.71 130.136 232.892V230.131C130.008 230.284 129.727 230.425 129.292 230.553C128.866 230.672 128.372 230.778 127.809 230.872C127.255 230.957 126.714 231.034 126.186 231.102C125.666 231.162 125.244 231.213 124.92 231.256C124.136 231.358 123.403 231.524 122.721 231.754C122.048 231.976 121.502 232.312 121.085 232.764C120.676 233.207 120.471 233.812 120.471 234.58C120.471 235.628 120.859 236.42 121.635 236.957C122.419 237.486 123.412 237.75 124.613 237.75ZM182.023 227.369V230.182H146.023V227.369H182.023ZM8.25568 266.92C7.57386 266.929 6.88778 267.104 6.19744 267.445C5.51563 267.786 4.9446 268.237 4.48438 268.8C4.03267 269.354 3.80682 269.972 3.80682 270.653H0.840909C0.840909 269.801 1.04545 268.983 1.45455 268.199C1.86364 267.415 2.41335 266.716 3.10369 266.102C3.80256 265.489 4.59517 265.003 5.48153 264.645C6.37642 264.287 7.30114 264.108 8.25568 264.108C10.0455 264.108 11.5625 264.56 12.8068 265.463C14.0597 266.366 15.0099 267.56 15.6577 269.043C16.3139 270.526 16.642 272.136 16.642 273.875V274.591C16.642 276.321 16.3139 277.932 15.6577 279.423C15.0099 280.906 14.0597 282.099 12.8068 283.003C11.5625 283.906 10.0455 284.358 8.25568 284.358C6.82386 284.358 5.54972 284.043 4.43324 283.412C3.31676 282.773 2.43892 281.92 1.79972 280.855C1.16051 279.79 0.840909 278.605 0.840909 277.301H3.80682C3.80682 278.043 4.01563 278.737 4.43324 279.385C4.85938 280.024 5.40909 280.544 6.08239 280.945C6.7642 281.337 7.48864 281.537 8.25568 281.545C9.39773 281.537 10.3693 281.179 11.1705 280.472C11.9716 279.764 12.581 278.878 12.9986 277.812C13.4162 276.747 13.625 275.673 13.625 274.591V273.875C13.625 272.767 13.4162 271.685 12.9986 270.628C12.5895 269.562 11.9844 268.68 11.1832 267.982C10.3906 267.283 9.41477 266.929 8.25568 266.92ZM14.8523 272.699V275.511H6.26136V272.699H14.8523ZM18.6715 267.176V264.364H34.6261V267.176H28.1829V284H25.1658V267.176H18.6715ZM45.9847 284.409C44.212 284.409 42.6566 283.987 41.3185 283.143C39.989 282.3 38.9492 281.119 38.1992 279.602C37.4577 278.085 37.087 276.312 37.087 274.284C37.087 272.239 37.4577 270.453 38.1992 268.928C38.9492 267.402 39.989 266.217 41.3185 265.374C42.6566 264.53 44.212 264.108 45.9847 264.108C47.7575 264.108 49.3086 264.53 50.6381 265.374C51.9762 266.217 53.016 267.402 53.7575 268.928C54.5075 270.453 54.8825 272.239 54.8825 274.284C54.8825 276.312 54.5075 278.085 53.7575 279.602C53.016 281.119 51.9762 282.3 50.6381 283.143C49.3086 283.987 47.7575 284.409 45.9847 284.409ZM45.9847 281.699C47.3313 281.699 48.4393 281.354 49.3086 280.663C50.1779 279.973 50.8214 279.065 51.239 277.94C51.6566 276.815 51.8654 275.597 51.8654 274.284C51.8654 272.972 51.6566 271.749 51.239 270.615C50.8214 269.482 50.1779 268.565 49.3086 267.866C48.4393 267.168 47.3313 266.818 45.9847 266.818C44.6381 266.818 43.5302 267.168 42.6609 267.866C41.7915 268.565 41.1481 269.482 40.7305 270.615C40.3129 271.749 40.104 272.972 40.104 274.284C40.104 275.597 40.3129 276.815 40.7305 277.94C41.1481 279.065 41.7915 279.973 42.6609 280.663C43.5302 281.354 44.6381 281.699 45.9847 281.699ZM68.4879 267.176V264.364H84.4425V267.176H77.9993V284H74.9822V267.176H68.4879ZM95.8011 284.409C94.0284 284.409 92.473 283.987 91.1349 283.143C89.8054 282.3 88.7656 281.119 88.0156 279.602C87.2741 278.085 86.9034 276.312 86.9034 274.284C86.9034 272.239 87.2741 270.453 88.0156 268.928C88.7656 267.402 89.8054 266.217 91.1349 265.374C92.473 264.53 94.0284 264.108 95.8011 264.108C97.5739 264.108 99.125 264.53 100.455 265.374C101.793 266.217 102.832 267.402 103.574 268.928C104.324 270.453 104.699 272.239 104.699 274.284C104.699 276.312 104.324 278.085 103.574 279.602C102.832 281.119 101.793 282.3 100.455 283.143C99.125 283.987 97.5739 284.409 95.8011 284.409ZM95.8011 281.699C97.1477 281.699 98.2557 281.354 99.125 280.663C99.9943 279.973 100.638 279.065 101.055 277.94C101.473 276.815 101.682 275.597 101.682 274.284C101.682 272.972 101.473 271.749 101.055 270.615C100.638 269.482 99.9943 268.565 99.125 267.866C98.2557 267.168 97.1477 266.818 95.8011 266.818C94.4545 266.818 93.3466 267.168 92.4773 267.866C91.608 268.565 90.9645 269.482 90.5469 270.615C90.1293 271.749 89.9205 272.972 89.9205 274.284C89.9205 275.597 90.1293 276.815 90.5469 277.94C90.9645 279.065 91.608 279.973 92.4773 280.663C93.3466 281.354 94.4545 281.699 95.8011 281.699ZM107.268 284L115.246 274.028L107.371 264.364H110.95L117.496 272.75H119.132V264.364H122.149V272.75H123.734L130.28 264.364H133.859L126.036 274.028L133.962 284H130.331L123.683 275.562H122.149V284H119.132V275.562H117.598L110.899 284H107.268ZM145.697 284.409C143.805 284.409 142.173 283.991 140.801 283.156C139.438 282.312 138.385 281.136 137.643 279.628C136.911 278.111 136.544 276.347 136.544 274.335C136.544 272.324 136.911 270.551 137.643 269.017C138.385 267.474 139.416 266.273 140.737 265.412C142.067 264.543 143.618 264.108 145.391 264.108C146.413 264.108 147.423 264.278 148.42 264.619C149.418 264.96 150.325 265.514 151.143 266.281C151.962 267.04 152.614 268.045 153.099 269.298C153.585 270.551 153.828 272.094 153.828 273.926V275.205H138.692V272.597H150.76C150.76 271.489 150.538 270.5 150.095 269.631C149.661 268.761 149.038 268.075 148.229 267.572C147.428 267.07 146.482 266.818 145.391 266.818C144.189 266.818 143.149 267.116 142.271 267.713C141.402 268.301 140.733 269.068 140.264 270.014C139.795 270.96 139.561 271.974 139.561 273.057V274.795C139.561 276.278 139.817 277.536 140.328 278.567C140.848 279.589 141.568 280.369 142.489 280.906C143.409 281.435 144.479 281.699 145.697 281.699C146.49 281.699 147.206 281.588 147.845 281.366C148.493 281.136 149.051 280.795 149.52 280.344C149.989 279.884 150.351 279.312 150.607 278.631L153.521 279.449C153.214 280.438 152.699 281.307 151.974 282.057C151.25 282.798 150.355 283.378 149.29 283.795C148.224 284.205 147.027 284.409 145.697 284.409ZM167.52 260.631V257.818H187.156V260.631H178.923V284H175.753V260.631H167.52ZM204.527 268.812H211.993C213.868 268.812 215.449 269.119 216.735 269.733C218.031 270.347 219.011 271.212 219.676 272.328C220.349 273.445 220.686 274.761 220.686 276.278C220.686 277.795 220.349 279.134 219.676 280.293C219.011 281.452 218.031 282.359 216.735 283.016C215.449 283.672 213.868 284 211.993 284H202.174V257.818H205.345V281.239H211.993C213.186 281.239 214.196 281 215.022 280.523C215.858 280.037 216.488 279.415 216.914 278.656C217.349 277.889 217.566 277.08 217.566 276.227C217.566 274.974 217.085 273.896 216.122 272.993C215.159 272.081 213.782 271.625 211.993 271.625H204.527V268.812ZM226.413 257.818V284H223.243V257.818H226.413Z" fill="#5C5C61"/>
</svg>
