<svg width="147" height="155" viewBox="0 0 147 155" fill="none" xmlns="http://www.w3.org/2000/svg">
<path d="M107.704 71.5126C111.254 59.0885 127.653 50.1026 136.416 41.3398C140.419 37.3362 138.499 30.8947 134.954 27.3496C129.404 21.7994 122.236 18.9153 115.169 15.9173C106.985 12.445 100.514 7.19103 91.626 5.21581C84.3942 3.60875 76.7327 1.73351 69.2834 2.03148C63.2352 2.27341 57.1203 3.42632 51.0649 3.91076C48.8336 4.08926 47.705 5.06822 46.6277 6.88628C44.0457 11.2434 42.8652 16.2471 39.998 20.7199C37.1463 25.1685 34.6176 30.0753 31.5934 34.3447C28.8356 38.2381 29.8652 47.432 29.7664 51.7802C29.6281 57.8627 30.1583 64.0854 29.7142 70.1554C29.1922 77.2883 20.3257 85.9314 16.507 91.6105C10.6 100.395 10.4596 101.253 14.1579 111.291C17.0419 119.119 21.1267 129.08 28.7745 133.007C38.6345 138.07 52.5916 142.765 63.3324 137.079C72.881 132.023 83.8204 125.466 91.7304 117.973C94.1764 115.655 92.0492 110.801 94.4971 107.741C97.5948 103.869 96.0821 95.1426 96.4808 90.3576C96.8379 86.072 97.8821 79.6141 99.6651 75.7932C101.607 71.6319 99.8225 71.2805 105.721 70.6252C108.782 70.2851 110.566 70.6161 107.704 67.7541" stroke="black" stroke-opacity="0.5" stroke-width="3" stroke-linecap="round"/>
<path d="M108.644 38.6251C106.645 35.5738 105.13 32.0781 102.954 29.1765C99.457 24.514 93.3784 21.7362 88.5983 18.5795C78.509 11.9168 68.3388 8.30335 56.5461 7.14721C46.5043 6.16271 34.2957 5.61918 24.5462 9.07869C19.8288 10.7526 4.12473 13.787 2.51682 19.4147C0.172636 27.6194 6.3749 41.1308 9.66852 48.2304C13.1022 55.6319 21.1456 64.8106 28.3569 68.6936C40.2112 75.0767 54.7368 70.7175 66.3601 76.4196C75.3667 80.8379 70.8248 94.3683 74.5037 101.999C77.1444 107.476 81.6726 109.785 86.8756 112.387C92.0489 114.974 97.3298 119.02 101.701 122.827C107.255 127.665 112.791 129.465 120.128 129.718C124.945 129.884 133.494 131.391 138.086 129.248C140.631 128.06 143.298 122.315 144.663 119.956C145.86 117.89 145.29 114.656 145.29 112.335C145.29 105.755 144.304 100.418 142.001 94.4293C139.231 87.2272 137.166 82.076 132.657 75.6887C130.273 72.3113 126.383 69.7782 123.678 66.6055C121.266 63.7759 119.449 60.5118 117.101 57.6268C114.053 53.8821 108.644 47.5425 108.644 42.3837C108.644 39.8699 108.762 37.9221 107.704 35.8062" stroke="black" stroke-opacity="0.5" stroke-width="3" stroke-linecap="round"/>
<path d="M91.7304 37.6856C83.921 27.3772 74.6321 28.0716 62.8104 25.7835C52.4003 23.7686 42.7944 22.6514 32.0111 22.6514C27.3276 22.6514 19.8808 22.168 17.29 27.3496C15.271 31.3877 14.9527 35.861 12.5918 39.9825C10.3106 43.965 6.59945 47.7508 5.49234 52.3022C3.57539 60.183 10.0853 73.7741 16.1416 78.8209C27.0301 87.8947 42.8172 84.914 55.0844 90.9319C59.6153 93.1546 64.4417 96.5838 68.5526 99.493C71.5632 101.624 76.6764 104.13 77.8446 107.741C80.329 115.42 81.6735 122.179 82.5428 130.292C83.0294 134.834 82.2103 143.324 85.7794 146.893C91.1551 152.268 102.724 153.261 109.792 153.261C116.786 153.261 118.33 149.171 119.92 142.194C121.887 133.561 122.93 123.612 121.59 114.736C120.302 106.2 119.125 97.298 115.952 89.3658C113.279 82.6816 107.901 76.8173 104.155 70.573C100.726 64.8581 93.6102 58.6743 92.6701 51.7802C92.0669 47.3573 91.7304 43.1455 91.7304 38.6252" stroke="black" stroke-opacity="0.5" stroke-width="3" stroke-linecap="round"/>
</svg>
