<svg width="323" height="211" viewBox="0 0 323 211" fill="none" xmlns="http://www.w3.org/2000/svg">
<path d="M337.154 177.671C322.183 177.671 306.777 179.453 292.321 183.349C282.453 186.009 273.634 190.404 264.293 194.442C254.909 198.498 245.053 201.525 235.175 204.115C229.69 205.552 224.038 207.58 218.371 208.109C212.703 208.639 207.024 208.631 201.336 208.572C194.425 208.5 185.222 206.448 179.646 202.266C176.494 199.902 173.568 197.606 171.029 194.574C167.62 190.502 163.167 187.982 159.244 184.472C153.531 179.361 149.603 172.84 144.949 166.842C140.832 161.537 135.808 156.466 130.687 152.118C124.623 146.97 117.892 141.528 110.747 137.956C106.04 135.602 100.498 134.372 95.5604 132.508C92.8391 131.481 90.566 129.358 87.9343 128.085C85.007 126.668 81.893 124.803 79.3838 122.736C72.4414 117.019 65.5159 112.458 60.8302 104.513C57.7929 99.3627 54.4506 94.7812 51.1242 89.8548C47.2144 84.0643 44.5545 77.4321 40.6259 71.5653C37.9748 67.6063 34.889 63.9174 32.6696 59.6804C30.0966 54.7684 29.3797 49.1468 26.9913 44.131C25.6302 41.2727 23.5415 38.8509 21.6101 36.3728C19.1535 33.2211 17.9602 28.9564 16.559 25.2473C14.887 20.8213 11.6788 18.0661 9.13093 14.3858C7.28568 11.7204 2 8.08576 2 4.74585" stroke="black" stroke-width="3" stroke-linecap="round"/>
<path d="M337.4 147.925C330.409 147.925 323.511 149.002 316.52 149.002C312.523 149.002 308.698 149.219 304.763 149.51C292.262 150.436 278.392 154.132 267.579 160.728C259.292 165.783 250.374 173.081 240.506 168.147C235.973 165.881 229.719 165.898 224.741 165.275C219.709 164.646 214.347 165.156 209.275 165.156C206.553 165.156 203.612 166.076 201.108 167.1C197.93 168.4 193.795 171.326 190.399 171.617C188.022 171.821 185.588 173.424 183.159 173.891C179.689 174.558 179.21 174.714 176.129 173.741C173.304 172.849 167.709 167.808 168.74 165.156C169.797 162.439 164.491 156.966 162.937 155.134C160.582 152.359 158.322 149.866 156.774 146.549C155.463 143.739 153.065 140.446 150.851 138.232C148.904 136.286 146.274 135.303 144.36 133.326C142.24 131.139 140.387 128.711 138.287 126.506C133.757 121.749 128.891 118.335 122.522 116.424C119.115 115.402 115.689 113.804 112.111 113.493C110.829 113.381 109.666 113.015 108.372 112.924C106.853 112.818 105.829 111.447 104.244 111.309C100.475 110.981 97.361 109.13 94.0129 107.54C90.8739 106.049 87.1658 104.959 85.1581 101.856C84.0946 100.212 83.0589 98.4617 81.9273 96.89C80.0452 94.276 79.2562 91.6392 78.6366 88.3643C77.0361 79.9044 72.8527 73.1901 69.4827 65.3597C68.0412 62.0103 65.5308 57.8241 65.0553 54.2314C64.6229 50.9646 64.5392 47.4666 63.8288 44.2697C63.2825 41.8117 63.6616 39.728 64.1279 37.2098C65.0866 32.033 64.9356 26.2602 64.9356 20.966C64.9356 14.3003 69.2434 8.71059 69.2434 2" stroke="black" stroke-width="3" stroke-linecap="round"/>
<path d="M340.055 130.691C337.816 128.452 334.432 127.101 331.261 125.881C328.562 124.843 325.524 123.696 322.611 123.584C321.116 123.527 318.642 123.392 317.3 122.651C313.037 120.299 307.708 122.461 303.23 123.261C297.938 124.206 293.888 127.235 289.017 129.04C284.533 130.7 279.917 131.897 275.45 133.634C272.296 134.86 270.361 138.167 267.411 139.233C263.776 140.545 260.24 144.287 257.038 146.519C253.466 149.009 249.111 151.275 244.799 152.153C240.361 153.058 236.412 155.161 231.879 155.886C229.443 156.276 227.287 157.143 224.772 157.178C221.447 157.225 219.685 158.155 216.661 158.973C213.167 159.917 209.93 158.165 206.611 157.501C202.236 156.626 198.1 155.028 193.834 154.092C187.523 152.706 182.753 145.236 178.401 140.884C174.322 136.805 170.333 133.399 165.623 129.901C162.811 127.812 159.916 126.34 156.938 124.553C153.085 122.241 149.994 118.977 146.099 116.621C144.45 115.624 142.951 114.439 141.182 113.642C139.802 113.022 138.008 112.965 136.875 111.919C135.749 110.88 134.573 109.935 133.465 108.869C132.48 107.92 131.51 106.149 130.45 105.495C125.18 102.24 118.461 97.7425 112.002 97.7425C107.778 97.7425 102.069 93.9077 97.9328 92.4306C91.249 90.0435 89.9689 80.0215 87.5961 74.485C86.5412 72.0235 87.4526 67.1405 87.4526 64.5431C87.4526 58.9535 87.639 53.7089 88.8882 48.2127C91.2878 37.6544 91.6902 26.8583 94.0565 16.3413C94.5259 14.2552 95.4462 9.6139 94.2001 7.65566C93.2746 6.2013 93.4912 2.88661 91.9748 2.12842" stroke="black" stroke-width="3" stroke-linecap="round"/>
<path d="M92 2C93.9502 4.09316 96.7338 5.67669 99.0702 7.04448C101.627 8.54154 103.68 10.459 106.14 12.089C107.527 13.0077 107.75 14.3002 108.981 15.2598C110.53 16.4682 111.836 18.7764 112.908 20.5205C114.715 23.458 114.942 28.6551 115.869 32.0507C116.798 35.4537 117.462 38.7151 118.528 42.0676C120.7 48.896 122.749 55.918 128.439 59.6873C134.557 63.7408 140.655 67.965 146.597 72.3705C149.777 74.7275 152.532 76.1013 155.994 77.6672C160.174 79.558 164.902 81.1556 168.926 83.3603C172.096 85.0971 176.044 86.3777 178.776 89.0534C182.696 92.8932 185.686 98.4011 187.931 103.754C192.307 114.193 195.951 126.255 202.947 134.598C208.551 141.28 217.757 146.399 224.883 140.219C227.111 138.286 229.734 136.138 231.712 133.733C236.397 128.034 240.817 122.808 246.214 117.879C250.179 114.258 253.346 110.262 256.91 106.277C262.351 100.194 267.074 94.2257 273.891 90.5307C278.511 88.026 283.026 87.6121 288.092 87.6121C292.179 87.6121 295.802 89.8694 299.966 90.1703C303.71 90.441 306.006 88.8359 309.393 87.1437C320.032 81.8285 331.181 77.9183 340 68.8034" stroke="black" stroke-width="3" stroke-linecap="round"/>
<path d="M342.639 55.1038C336.235 55.36 329.696 55.6802 323.329 56.3959C315.254 57.3037 307.548 60.9326 299.677 62.9281C291.069 65.1104 281.443 68.357 274.804 74.5209C268.317 80.5449 262.037 86.7615 254.203 90.9232C250.118 93.0934 245.657 92.5742 241.174 92.5742C235.939 92.5742 230.097 92.5268 225.203 90.636C219.969 88.614 214.995 86.324 209.841 83.8167C207.324 82.5922 204.663 79.9395 201.802 79.6534C198.027 79.2759 194.721 78.4393 190.819 78.3613C185.024 78.2454 175.642 76.3905 170.792 73.1571C168.99 71.9558 167.019 71.6594 165.408 70.1063C163.656 68.4163 163.076 66.6492 161.711 64.8303C159.518 61.9062 156.025 60.4818 153.923 57.3291C152.482 55.1675 150.639 53.2784 149.508 50.9045C147.828 47.376 148.18 43.3944 148.18 39.5988C148.18 36.698 147.547 35.1315 146.96 32.4924C146.103 28.6368 148.739 24.4367 149.329 20.7201C150.277 14.7504 151.643 3.42053 143.658 3.42053" stroke="black" stroke-width="3" stroke-linecap="round"/>
<path d="M157.225 9.88098C157.539 15.6959 160.455 21.1104 160.455 27.037C160.455 29.334 160.455 31.631 160.455 33.9281C160.455 35.4623 160.72 35.8582 161.711 37.0147C162.66 38.1215 161.94 39.4953 162.788 40.532C164.611 42.7599 167.526 44.0859 168.854 46.7412C170.187 49.4066 173.885 50.5946 175.171 53.1657C176.085 54.994 177.722 56.9473 179.19 58.334C180.745 59.8026 187.342 60.2722 189.599 60.2722C192.615 60.2722 196.996 61.1008 199.577 59.6261C202.891 57.7323 211.777 56.365 214.866 58.8365C216.039 59.7743 217.601 59.9198 218.958 61.2771C221.106 63.4257 222.631 66.041 224.09 68.6348C227.818 75.2609 235.047 78.3112 241.533 81.9145C243.242 82.8639 244.362 83.4671 245.876 84.6782C246.885 85.485 250.601 84.8217 251.834 84.8217C254.489 84.8217 255.233 85.0146 256.859 83.0272C257.976 81.6621 259.228 80.634 260.089 79.0073C260.722 77.812 262.871 75.7134 263.14 74.7722C263.968 71.875 265.018 71.2477 266.765 68.7066C269.023 65.4215 275.651 59.8662 279.973 59.6261C284.463 59.3767 287.966 56.8997 292.284 56.36C296.252 55.864 302.059 54.6372 305.168 51.8736C306.707 50.5056 310.884 49.7944 312.921 49.0023C315.74 47.906 318.773 47.0897 321.607 46.0593C326.738 44.1935 333.047 44.1211 338.763 44.1211" stroke="black" stroke-width="3" stroke-linecap="round"/>
<path d="M336.323 158.156C334.495 156.937 331.098 157.601 329.084 158.036C326.515 158.591 323.211 158.089 320.887 159.352C316.468 161.754 311.743 163.126 307.067 164.916C304.112 166.048 301.924 168.432 298.93 169.404C295.294 170.583 291.945 171.68 288.519 173.412C279.366 178.041 268.396 177.648 259.323 182.267C247.913 188.076 236.63 196.099 223.604 197.583C218.732 198.139 214.173 199.618 209.245 199.618C205.399 199.618 201.544 199.689 197.698 199.618C190.083 199.477 179.485 199.129 174.125 192.917C170.98 189.271 169.304 184.184 167.125 179.993C165.292 176.468 163.548 173.014 161.74 169.463C160.001 166.047 156.937 163.707 154.62 160.728C150.263 155.126 146.878 148.692 141.219 144.275C137.761 141.577 134.121 139.084 130.928 136.078C127.193 132.564 119.985 132.027 115.252 130.813C112.233 130.039 109.626 128.497 106.697 127.463C104.834 126.806 102.846 126.692 101.013 126.057C98.9803 125.353 97.4236 124.331 95.2095 124.232C89.7779 123.991 86.6873 118.93 84.0812 114.959C82.2161 112.117 78.1609 108.611 77.8589 105.087C77.7222 103.493 76.4772 101.596 75.9742 100.031C75.296 97.9209 74.6985 95.7902 74.0896 93.6591C72.9689 89.7369 71.3777 88.0542 69.1237 84.8043C65.5956 79.7173 63.943 72.5149 62.2433 66.6161C59.3728 56.6537 58.1393 45.7549 59.1321 35.385C59.8099 28.3057 61.5664 21.3453 62.3629 14.2651C62.6059 12.1051 64.1759 7.9231 61.1664 7.9231" stroke="black" stroke-width="3" stroke-linecap="round"/>
</svg>
