<svg width="269" height="113" viewBox="0 0 269 113" fill="none" xmlns="http://www.w3.org/2000/svg">
<path d="M-77.0862 103.754C-77.0862 101.612 -74.4854 99.9763 -71.3395 98.433C-67.2624 96.433 -64.9475 93.4428 -60.9512 91.3049C-53.8509 87.5064 -42.6168 84.7531 -32.5493 82.9721C-19.5718 80.6763 -7.39545 77.9193 6.24093 76.3962C23.7867 74.4364 40.2443 71.8494 58.2375 70.774C70.194 70.0594 82.1715 69.535 94.2096 69.4187C99.4966 69.3676 104.111 68.3724 109.184 67.8374C117.267 66.9851 125.276 66.1718 133.11 64.9009C143.04 63.2901 150.602 60.0979 158.805 57.1704C165.851 54.6558 173.694 52.9288 180.963 50.6698C186.675 48.8945 193.615 48.2715 199.529 46.3528C205.197 44.5136 208.96 42.4954 213.785 40.3039C215.493 39.528 217.439 38.783 218.869 37.8945C220.531 36.8615 223.234 36.8605 224.836 35.7359C228.205 33.3715 235.511 31.9185 239.424 29.5616C242.114 27.9415 244.896 26.3638 246.663 24.4916C247.057 24.0735 248.591 22.6029 249.702 22.4586C253.189 22.0061 253.937 20.8643 257.99 20.6013C259.445 20.5069 262.525 19.7703 263.074 19.2711" stroke="black" stroke-width="3" stroke-linecap="round"/>
<path d="M261.085 44.119C259.018 44.119 257.026 44.5924 255.007 44.8217C249.886 45.4032 244.857 45.4875 239.645 45.8257C231.108 46.3796 222.203 46.8311 214.006 48.185C212.385 48.4528 210.561 49.9666 208.923 50.4439C205.09 51.5607 200.279 52.7566 195.993 53.4055C193.253 53.8203 191.279 54.755 189.03 55.5139C185.712 56.6334 181.17 57.5041 177.537 58.3751C171.654 59.7854 168.307 62.252 163.612 64.4491C153.964 68.9643 141.682 73.3331 130.292 76.873C126.567 78.0307 123.987 79.7827 120.291 80.9641C115.791 82.4025 111.202 83.8146 106.698 85.2309C99.0136 87.6473 89.1416 87.9416 80.064 87.9416C68.4887 87.9416 55.4316 88.7414 44.0366 87.8412C36.5854 87.2526 29.9395 86.5863 22.3207 86.5863C16.2758 86.5863 9.57474 86.223 3.58872 86.6114C0.989642 86.78 -1.43217 87.4497 -4.25773 87.4898C-9.89847 87.5699 -13.17 88.6937 -18.4034 89.1966C-25.0042 89.8308 -30.8296 91.7494 -37.3012 92.7104C-44.1388 93.7258 -51.203 94.6501 -56.199 97.2031C-61.6272 99.9769 -65.1 101.923 -72.6103 103.754C-79.6812 105.477 -88.1913 107.618 -93 110.531" stroke="black" stroke-width="3" stroke-linecap="round"/>
<path d="M-81.0132 70.3225C-78.1725 67.0967 -76.7504 63.2026 -74.9922 59.8084C-73.8661 57.6347 -71.4573 55.541 -70.2423 53.6094C-68.9525 51.5589 -63.2564 50.5877 -59.739 49.2943C-55.0965 47.5873 -49.9674 46.6906 -44.8203 45.4047C-33.6376 42.611 -15.9378 42.2214 -3.27551 42.4268C10.4881 42.65 24.1089 45.8369 37.9348 46.2556C43.0038 46.4091 48.104 47.3936 53.0542 47.8965C59.1709 48.518 65.3065 48.511 71.3848 49.264C79.396 50.2564 88.1333 50.5531 96.4053 50.6314C104.525 50.7082 111.512 52.8193 119.419 52.8193C135.117 52.8193 151.463 52.179 166.45 50.0844C171.633 49.36 180.564 48.5305 184.579 46.8026C187.545 45.5262 191.264 44.1721 193.611 42.6395C196.184 40.9597 198.115 38.5587 201.037 37.0786C203.159 36.0032 204.628 34.7118 206.79 33.6752C208.274 32.9638 208.816 31.2285 210.403 30.9403C215.9 29.9414 222.137 23.0753 223.582 20.6693C225.531 17.4241 231.973 14.8605 234.487 11.7962C236.765 9.01781 238.867 6.22071 243.184 4.26005C248.352 1.91229 260.119 2.49757 267 2.49757" stroke="black" stroke-width="3" stroke-linecap="round"/>
<path d="M258.624 52.5266C249.105 52.5266 239.811 53.6664 230.214 53.7754C213.626 53.9638 198.427 54.3402 181.948 52.9429C163.723 51.3977 150.149 49.8205 136.227 44.0624C127.68 40.5273 118.648 36.6093 108.835 33.7943C102.916 32.0962 96.5939 30.7488 90.4043 29.2153C79.3507 26.4767 70.3064 22.4387 58.9395 19.8723C46.4896 17.0613 31.9101 15.1586 18.5139 13.42C10.1991 12.341 5.57271 12.7273 -2.36079 13.6282C-17.7838 15.3796 -26.3027 19.1074 -31.4326 25.8389C-33.8625 29.0274 -38.5003 32.067 -44.7721 34.0256C-46.764 34.6476 -48.251 35.4243 -49.7616 36.2688C-51.2848 37.1204 -53.7333 37.342 -55.6676 37.957C-60.4264 39.4701 -67.1056 38.6589 -72.4183 39.9459C-75.7705 40.758 -79.7837 40.8473 -83.1611 41.5185C-85.372 41.9578 -87.4104 42.6167 -89.6272 42.9523" stroke="black" stroke-width="3" stroke-linecap="round"/>
<path d="M259.207 52.3839C260.107 52.3839 260.663 52.619 261.536 52.619" stroke="black" stroke-width="3" stroke-linecap="round"/>
</svg>
