<svg width="252" height="122" viewBox="0 0 252 122" fill="none" xmlns="http://www.w3.org/2000/svg">
<path d="M13.4026 9.40735C13.4026 11.7485 15.2661 13.5366 17.5202 15.2235C20.4414 17.4097 22.1001 20.6781 24.9635 23.015C30.0509 27.1669 38.1003 30.1765 45.3138 32.1233C54.6122 34.6327 63.3367 37.6463 73.1074 39.3112C85.6791 41.4533 97.4712 44.2811 110.363 45.4565C118.93 46.2376 127.512 46.8108 136.138 46.938C139.926 46.9939 143.232 48.0816 146.867 48.6664C152.659 49.598 158.397 50.487 164.011 51.8762C171.125 53.6369 176.544 57.1262 182.421 60.3261C187.469 63.0748 193.089 64.9625 198.297 67.4317C202.39 69.3722 207.363 70.0532 211.6 72.1505C215.662 74.1608 218.358 76.3668 221.815 78.7622C223.039 79.6104 224.433 80.4248 225.457 81.396C226.648 82.5251 228.586 82.5261 229.733 83.7554C232.147 86.3398 237.382 87.9281 240.186 90.5043C242.113 92.2752 244.107 93.9997 245.372 96.0461C245.655 96.5032 246.754 98.1107 247.55 98.2683C250.048 98.7629 250.584 100.011 253.489 100.298C254.531 100.402 256.737 101.207 257.131 101.753" stroke="black" stroke-width="3" stroke-linecap="round"/>
<path d="M255.706 74.5922C254.225 74.5922 252.797 74.0747 251.351 73.824C247.682 73.1885 244.078 73.0963 240.344 72.7266C234.227 72.1211 227.846 71.6277 221.973 70.1478C220.812 69.855 219.504 68.2004 218.331 67.6786C215.585 66.4579 212.137 65.1507 209.066 64.4414C207.104 63.988 205.689 62.9663 204.078 62.1368C201.7 60.9131 198.446 59.9614 195.843 59.0093C191.628 57.4678 189.229 54.7716 185.865 52.3701C178.952 47.4346 170.153 42.6592 161.991 38.7899C159.322 37.5245 157.474 35.6094 154.825 34.3181C151.601 32.7458 148.313 31.2023 145.086 29.6542C139.58 27.0129 132.506 26.6912 126.002 26.6912C117.708 26.6912 108.353 25.817 100.188 26.801C94.8493 27.4444 90.0874 28.1727 84.6285 28.1727C80.2973 28.1727 75.4959 28.5698 71.2069 28.1453C69.3446 27.9609 67.6093 27.2289 65.5848 27.185C61.5431 27.0975 59.1991 25.8691 55.4492 25.3195C50.7197 24.6262 46.5457 22.5291 41.9088 21.4786C37.0096 20.3688 31.948 19.3584 28.3683 16.5678C24.4789 13.5359 21.9907 11.4082 16.6095 9.40737C11.5431 7.52358 5.44549 5.18334 2 2" stroke="black" stroke-width="3" stroke-linecap="round"/>
<path d="M10.5886 45.95C12.624 49.476 13.6429 53.7325 14.9027 57.4426C15.7095 59.8186 17.4355 62.1072 18.3061 64.2185C19.2302 66.4598 23.3115 67.5214 25.8318 68.9351C29.1582 70.8011 32.8332 71.7812 36.5212 73.1867C44.5337 76.2404 57.2158 76.6663 66.2885 76.4418C76.1502 76.1978 85.9097 72.7143 95.8161 72.2567C99.4481 72.0889 103.102 71.0128 106.649 70.463C111.032 69.7837 115.428 69.7914 119.783 68.9683C125.523 67.8836 131.784 67.5592 137.711 67.4736C143.529 67.3896 148.535 65.0821 154.2 65.0821C165.448 65.0821 177.16 65.782 187.898 68.0715C191.612 68.8634 198.011 69.77 200.889 71.6588C203.014 73.0539 205.678 74.534 207.36 76.2093C209.203 78.0454 210.587 80.6699 212.68 82.2877C214.201 83.4632 215.254 84.8748 216.803 86.0079C217.866 86.7854 218.255 88.6822 219.391 88.9973C223.33 90.0891 227.799 97.5942 228.834 100.224C230.23 103.771 234.847 106.574 236.648 109.923C238.28 112.96 239.786 116.017 242.879 118.16C246.583 120.727 255.013 120.087 259.944 120.087" stroke="black" stroke-width="3" stroke-linecap="round"/>
<path d="M253.942 65.4021C247.122 65.4021 240.463 64.1562 233.586 64.0371C221.7 63.8312 210.811 63.4198 199.003 64.9471C185.945 66.6361 176.218 68.3601 166.243 74.6541C160.119 78.5181 153.648 82.8007 146.617 85.8777C142.376 87.7339 137.846 89.2066 133.411 90.8828C125.491 93.8763 119.011 98.2901 110.866 101.095C101.946 104.168 91.4992 106.248 81.9008 108.148C75.9431 109.328 72.6283 108.905 66.9438 107.921C55.893 106.006 49.7891 101.931 46.1135 94.5735C44.3725 91.0882 41.0495 87.7657 36.5557 85.6249C35.1284 84.945 34.063 84.096 32.9806 83.1729C31.8892 82.2421 30.1349 81.9998 28.7489 81.3276C25.3392 79.6737 20.5535 80.5604 16.7469 79.1536C14.3449 78.266 11.4695 78.1683 9.04951 77.4347C7.4654 76.9545 6.00486 76.2343 4.4165 75.8674" stroke="black" stroke-width="3" stroke-linecap="round"/>
</svg>
