<svg width="35" height="35" viewBox="0 0 35 35" fill="none" xmlns="http://www.w3.org/2000/svg">
<path d="M18.9322 1.62516C18.9322 1.24166 19.0861 0.873876 19.36 0.602704C19.6339 0.331532 20.0055 0.179189 20.3929 0.179189C24.2656 0.183399 27.9785 1.70818 30.717 4.41899C33.4554 7.1298 34.9957 10.8052 35 14.6389C35 15.0224 34.8461 15.3902 34.5722 15.6614C34.2982 15.9325 33.9267 16.0849 33.5393 16.0849C33.1519 16.0849 32.7803 15.9325 32.5064 15.6614C32.2325 15.3902 32.0786 15.0224 32.0786 14.6389C32.0751 11.572 30.8428 8.63169 28.6521 6.46306C26.4613 4.29443 23.4911 3.07458 20.3929 3.07113C20.0055 3.07113 19.6339 2.91879 19.36 2.64762C19.0861 2.37644 18.9322 2.00866 18.9322 1.62516ZM20.3929 8.85502C21.9425 8.85502 23.4287 9.46439 24.5244 10.5491C25.6201 11.6338 26.2357 13.1049 26.2357 14.6389C26.2357 15.0224 26.3896 15.3902 26.6636 15.6614C26.9375 15.9325 27.309 16.0849 27.6964 16.0849C28.0838 16.0849 28.4554 15.9325 28.7293 15.6614C29.0033 15.3902 29.1572 15.0224 29.1572 14.6389C29.1548 12.3386 28.2307 10.1332 26.5876 8.5067C24.9445 6.88017 22.7166 5.96537 20.3929 5.96307C20.0055 5.96307 19.6339 6.11542 19.36 6.38659C19.0861 6.65776 18.9322 7.02555 18.9322 7.40904C18.9322 7.79254 19.0861 8.16033 19.36 8.4315C19.6339 8.70267 20.0055 8.85502 20.3929 8.85502ZM33.6751 24.3833C34.5216 25.2236 34.997 26.3618 34.997 27.5485C34.997 28.7352 34.5216 29.8735 33.6751 30.7138L32.3459 32.2306C20.3827 43.5684 -8.72932 14.7575 2.54737 2.87737L4.22719 1.4314C5.07698 0.616852 6.21658 0.166246 7.39942 0.17707C8.58226 0.187895 9.71325 0.659278 10.5477 1.48924C10.593 1.53406 13.2997 5.01452 13.2997 5.01452C14.1028 5.84975 14.5499 6.95924 14.548 8.11237C14.5461 9.26549 14.0953 10.3735 13.2894 11.2062L11.5979 13.3115C12.534 15.563 13.9103 17.6093 15.6478 19.3327C17.3852 21.056 19.4495 22.4226 21.7221 23.3538L23.8621 21.6692C24.7033 20.8721 25.8224 20.4264 26.987 20.4248C28.1515 20.4232 29.2719 20.8657 30.1154 21.6605C30.1154 21.6605 33.6299 24.3385 33.6751 24.3833ZM31.6652 26.4857C31.6652 26.4857 28.1697 23.8237 28.1244 23.7789C27.8235 23.4835 27.4169 23.3178 26.9931 23.3178C26.5693 23.3178 26.1627 23.4835 25.8618 23.7789C25.8223 23.8194 22.8761 26.143 22.8761 26.143C22.6775 26.2995 22.4413 26.402 22.1905 26.4406C21.9397 26.4791 21.6832 26.4523 21.4461 26.3628C18.5019 25.2777 15.8278 23.579 13.6047 21.3816C11.3817 19.1842 9.66162 16.5395 8.56112 13.6267C8.46354 13.3888 8.43173 13.1294 8.46895 12.8753C8.50618 12.6212 8.6111 12.3814 8.77292 12.1807C8.77292 12.1807 11.1203 9.26278 11.1597 9.22518C11.4581 8.92729 11.6255 8.52478 11.6255 8.10528C11.6255 7.68578 11.4581 7.28327 11.1597 6.98537C11.1144 6.942 8.42527 3.47889 8.42527 3.47889C8.11984 3.20779 7.72122 3.06259 7.31111 3.07308C6.90101 3.08356 6.51049 3.24893 6.2196 3.53529L4.53978 4.98126C-3.70156 14.7907 21.5264 38.3789 30.2103 30.2554L31.541 28.7371C31.8529 28.4512 32.0402 28.0564 32.0633 27.6363C32.0865 27.2162 31.9437 26.8036 31.6652 26.4857Z" fill="#D2C0FF"/>
</svg>
